<svg viewBox="0 0 988 1103" fill="none" xmlns="http://www.w3.org/2000/svg">
<g id="fignu3">
<g id="fignu3-shadow" filter="url(#filter0_f_25_24045)">
<ellipse cx="503.82" cy="1023.46" rx="258.82" ry="24.4554" fill="#464646" fill-opacity="0.4" class="fignu3-shadow"/>
</g>
<g id="fignu3-card-verse" class="fignu3-card-verse">
<g id="Rectangle 967" filter="url(#filter1_bi_25_24045)">
<rect width="588.561" height="373.353" rx="20.3795" transform="matrix(-0.792503 -0.609869 0.866025 -0.5 466.437 680.126)" fill="url(#paint0_linear_25_24045)" fill-opacity="0.9"/>
</g>
<path id="Rectangle 405" d="M484.086 669.936C474.338 675.564 459.206 674.561 450.286 667.697L16.1511 333.61C7.23126 326.746 7.90211 316.619 17.6495 310.991L75.7815 277.429L542.218 636.374L484.086 669.936Z" fill="#010101"/>
<text id="5032 9334 3764 9846" transform="matrix(0.866025 -0.5 0.792503 0.609869 390.723 490.642)" fill="#FEFBFF" xml:space="preserve" style="white-space: pre" font-family="Rubik" font-size="22.2368" letter-spacing="0.03em"><tspan x="0" y="23.1161">5032 9334 3764 9846</tspan></text>
<text id="gold" transform="matrix(0.866025 -0.5 0.792503 0.609869 351.195 462.125)" fill="#F7F2FA" xml:space="preserve" style="white-space: pre" font-family="Sora" font-size="27.6403" font-weight="600" letter-spacing="0em"><tspan x="0" y="28.8977">gold</tspan></text>
<text id="02/22" transform="matrix(0.866025 -0.5 0.792503 0.609869 435.359 524.041)" fill="#FEFBFF" xml:space="preserve" style="white-space: pre" font-family="Rubik" font-size="14.6733" letter-spacing="0em"><tspan x="0" y="15.5256">02/22</tspan></text>
<text id="123" transform="matrix(0.866025 -0.5 0.792503 0.609869 502.426 485.319)" fill="#FEFBFF" xml:space="preserve" style="white-space: pre" font-family="Rubik" font-size="14.6733" letter-spacing="0em"><tspan x="0" y="15.5256">123</tspan></text>
<text id="validade" transform="matrix(0.866025 -0.5 0.792503 0.609869 422.438 514.097)" fill="#FEFBFF" xml:space="preserve" style="white-space: pre" font-family="Source Sans Pro" font-size="11.4125" letter-spacing="0.1em"><tspan x="0" y="12.0572">Validade</tspan></text>
<text id="cvv" transform="matrix(0.866025 -0.5 0.792503 0.609869 489.505 475.376)" fill="#FEFBFF" xml:space="preserve" style="white-space: pre" font-family="Source Sans Pro" font-size="11.4125" letter-spacing="0.1em"><tspan x="0" y="12.0572">CVV</tspan></text>
<text id="Est&#195;&#161; com d&#195;&#186;vidas? Entre no nosso app." transform="matrix(0.866025 -0.5 0.792503 0.609869 132.429 289.971)" fill="#FEFBFF" xml:space="preserve" style="white-space: pre" font-family="Source Sans Pro" font-size="13.3146" letter-spacing="0em"><tspan x="0" y="10.2334">Est&#xe1; com d&#xfa;vidas?&#10;</tspan><tspan x="0" y="21.2334">Entre no nosso app.</tspan></text>
<text id="Brasil 0800 591 2117" transform="matrix(0.866025 -0.5 0.792503 0.609869 163.438 313.834)" fill="#FEFBFF" xml:space="preserve" style="white-space: pre" font-family="Source Sans Pro" font-size="14.6223" letter-spacing="0em"><tspan x="0" y="13.6982">Brasil&#10;</tspan><tspan x="0" y="30.6982">0800 591 2117</tspan></text>
<text id="Fora do Brasil 1 636 722 7111" transform="matrix(0.866025 -0.5 0.792503 0.609869 198.971 341.178)" fill="#FEFBFF" xml:space="preserve" style="white-space: pre" font-family="Source Sans Pro" font-size="14.6223" letter-spacing="0em"><tspan x="0" y="13.6982">Fora do Brasil&#10;</tspan><tspan x="0" y="30.6982">1 636 722 7111</tspan></text>
<g id="Group 538">
<rect id="Rectangle 406" width="122.277" height="80.5918" rx="40.2959" transform="matrix(0.866025 -0.5 0.792503 0.609869 469.296 553.96)" fill="url(#paint1_linear_25_24045)"/>
<ellipse id="Ellipse 167" rx="24.4652" ry="24.4652" transform="matrix(0.866025 -0.5 0.792503 0.609869 569.881 539.412)" fill="#D9D9D9"/>
<path id="Subtract" fill-rule="evenodd" clip-rule="evenodd" d="M514.361 527.942L504.193 533.812C484.92 544.94 483.594 564.963 501.231 578.536C518.867 592.108 548.789 594.09 568.062 582.963L578.358 577.019C575.542 545.629 563.305 533.863 514.361 527.942Z" fill="url(#paint2_linear_25_24045)"/>
</g>
</g>
<g id="fignu3-card-front" class="fignu3-card-front">
<g id="Rectangle 970" filter="url(#filter2_bi_25_24045)">
<rect width="588.561" height="373.353" rx="20.3795" transform="matrix(0.768842 -0.639439 0.475931 0.879483 339.115 565.471)" fill="url(#paint3_linear_25_24045)"/>
</g>
<text id="ANTHONY D S ARAUJO" transform="matrix(-0.475931 -0.879483 0.768842 -0.639439 787.292 612.729)" fill="#FEFBFF" xml:space="preserve" style="white-space: pre" font-family="Sora" font-size="18.4135" font-weight="600" letter-spacing="0.1em"><tspan x="0" y="19.2606">ANTHONY D S ARAUJO      </tspan></text>
<g id="Group 303">
<rect id="Rectangle 344" x="1.08806" y="0.209822" width="79.8345" height="56.5252" rx="4.95324" transform="matrix(0.768842 -0.639439 0.475931 0.879483 446.289 627.926)" fill="url(#paint4_linear_25_24045)" stroke="#211F21" stroke-width="1.7482"/>
<path id="Vector 9" d="M456.186 643.373L474.555 628.095" stroke="#211F21" stroke-width="1.63036" stroke-linecap="round"/>
<path id="Vector 10" d="M464.783 659.26L482.75 644.318" stroke="#211F21" stroke-width="1.63036" stroke-linecap="round"/>
<path id="Vector 11" d="M507.794 623.488L525.716 608.583" stroke="#211F21" stroke-width="1.63036" stroke-linecap="round"/>
<path id="Vector 12" d="M499.205 608.337L517.395 593.209" stroke="#211F21" stroke-width="1.63036" stroke-linecap="round"/>
<circle id="Ellipse 12" r="1.7482" transform="matrix(0.768842 -0.639439 0.475931 0.879483 481.937 609.322)" fill="#211F21"/>
<path id="Vector 14" d="M493.457 604.199C488.114 598.932 483.121 598.304 477.969 602.589C471.696 607.806 472.88 614.744 474.416 627.839C480.418 632.362 482.356 635.875 483.152 643.983C494.299 653.821 499.47 655.406 504.54 651.091C511.26 645.502 509.647 637.395 507.57 623.675C502.381 619.283 500.381 616.142 498.935 608.637" stroke="#211F21" stroke-width="1.63036" stroke-linecap="round"/>
</g>
<g id="Group 534">
<ellipse id="Ellipse 14" rx="32.4875" ry="32.4875" transform="matrix(-0.475931 -0.879483 0.768842 -0.639439 553.687 763.793)" fill="#E6E3E7"/>
<ellipse id="Ellipse 15" rx="32.4875" ry="32.4875" transform="matrix(-0.475931 -0.879483 0.768842 -0.639439 534.844 728.97)" fill="#D7D7D7"/>
<ellipse id="Ellipse 3" rx="32.4875" ry="32.4875" transform="matrix(-0.475931 -0.879483 0.768842 -0.639439 553.589 763.874)" fill="#E71924"/>
<ellipse id="Ellipse 4" rx="32.4875" ry="32.4875" transform="matrix(-0.475931 -0.879483 0.768842 -0.639439 534.745 729.052)" fill="#F99F19"/>
<ellipse id="Ellipse 16" rx="32.4875" ry="32.4875" transform="matrix(-0.475931 -0.879483 0.768842 -0.639439 553.872 763.764)" fill="#E71924"/>
<ellipse id="Ellipse 17" rx="32.4875" ry="32.4875" transform="matrix(-0.475931 -0.879483 0.768842 -0.639439 535.028 728.942)" fill="#F99F19"/>
<ellipse id="Ellipse 3_2" rx="32.4875" ry="32.4875" transform="matrix(-0.475931 -0.879483 0.768842 -0.639439 553.775 763.846)" fill="#E71924"/>
<ellipse id="Ellipse 4_2" rx="32.4875" ry="32.4875" transform="matrix(-0.475931 -0.879483 0.768842 -0.639439 534.93 729.023)" fill="#F99F19"/>
</g>
<g id="Group 535">
<path id="Vector 482" d="M881.335 515.282C876.634 519.191 876.992 517.334 872.933 516.551C878.171 526.23 886.483 528.154 891.81 523.723L917.82 502.091L911.418 490.261L881.335 515.282Z" fill="white"/>
<path id="Vector 484" d="M874.262 494.654C868.621 499.346 869.83 510.816 872.232 516.095C867.233 516.094 864.01 510.978 862.652 508.469C857.799 499.5 863.115 488.331 866.875 485.203L895.706 461.226L901.525 471.98L874.262 494.654Z" fill="white"/>
</g>
<g id="Group 536">
<path id="Vector 482_2" d="M867.323 436.488C872.023 432.579 871.665 434.436 875.724 435.219C870.486 425.54 862.175 423.616 856.847 428.047L830.837 449.679L837.239 461.509L867.323 436.488Z" fill="white"/>
<path id="Vector 484_2" d="M874.395 457.116C880.036 452.424 878.827 440.954 876.425 435.675C881.424 435.676 884.647 440.792 886.005 443.301C890.859 452.27 885.542 463.439 881.782 466.567L852.951 490.544L847.132 479.79L874.395 457.116Z" fill="white"/>
</g>
</g>
</g>
<defs>
<filter id="filter0_f_25_24045" x="190.383" y="944.383" width="626.874" height="158.145" filterUnits="userSpaceOnUse" color-interpolation-filters="sRGB">
<feFlood flood-opacity="0" result="BackgroundImageFix"/>
<feBlend mode="normal" in="SourceGraphic" in2="BackgroundImageFix" result="shape"/>
<feGaussianBlur stdDeviation="27.3086" result="effect1_foregroundBlur_25_24045"/>
</filter>
<filter id="filter1_bi_25_24045" x="-47.1862" y="83.9886" width="884.143" height="646.653" filterUnits="userSpaceOnUse" color-interpolation-filters="sRGB">
<feFlood flood-opacity="0" result="BackgroundImageFix"/>
<feGaussianBlur in="BackgroundImageFix" stdDeviation="28.5314"/>
<feComposite in2="SourceAlpha" operator="in" result="effect1_backgroundBlur_25_24045"/>
<feBlend mode="normal" in="SourceGraphic" in2="effect1_backgroundBlur_25_24045" result="shape"/>
<feColorMatrix in="SourceAlpha" type="matrix" values="0 0 0 0 0 0 0 0 0 0 0 0 0 0 0 0 0 0 127 0" result="hardAlpha"/>
<feOffset dx="2.44554" dy="2.44554"/>
<feGaussianBlur stdDeviation="2.44554"/>
<feComposite in2="hardAlpha" operator="arithmetic" k2="-1" k3="1"/>
<feColorMatrix type="matrix" values="0 0 0 0 1 0 0 0 0 1 0 0 0 0 1 0 0 0 0.25 0"/>
<feBlend mode="normal" in2="shape" result="effect2_innerShadow_25_24045"/>
</filter>
<filter id="filter2_bi_25_24045" x="288.992" y="140.854" width="730.446" height="801.242" filterUnits="userSpaceOnUse" color-interpolation-filters="sRGB">
<feFlood flood-opacity="0" result="BackgroundImageFix"/>
<feGaussianBlur in="BackgroundImageFix" stdDeviation="28.5314"/>
<feComposite in2="SourceAlpha" operator="in" result="effect1_backgroundBlur_25_24045"/>
<feBlend mode="normal" in="SourceGraphic" in2="effect1_backgroundBlur_25_24045" result="shape"/>
<feColorMatrix in="SourceAlpha" type="matrix" values="0 0 0 0 0 0 0 0 0 0 0 0 0 0 0 0 0 0 127 0" result="hardAlpha"/>
<feOffset dx="2.44554" dy="2.44554"/>
<feGaussianBlur stdDeviation="2.44554"/>
<feComposite in2="hardAlpha" operator="arithmetic" k2="-1" k3="1"/>
<feColorMatrix type="matrix" values="0 0 0 0 1 0 0 0 0 1 0 0 0 0 1 0 0 0 0.25 0"/>
<feBlend mode="normal" in2="shape" result="effect2_innerShadow_25_24045"/>
</filter>
<linearGradient id="paint0_linear_25_24045" x1="497.334" y1="50.4027" x2="288.653" y2="429.597" gradientUnits="userSpaceOnUse">
<stop stop-color="#622B93"/>
<stop offset="1" stop-color="#A54CF9"/>
</linearGradient>
<linearGradient id="paint1_linear_25_24045" x1="64.4637" y1="80.7738" x2="98.249" y2="4.66003" gradientUnits="userSpaceOnUse">
<stop stop-color="#F6F3F7"/>
<stop offset="1" stop-color="#D6D6D6"/>
</linearGradient>
<linearGradient id="paint2_linear_25_24045" x1="520.466" y1="528.563" x2="527.871" y2="589.963" gradientUnits="userSpaceOnUse">
<stop stop-color="#F5F5F5"/>
<stop offset="1" stop-color="#D6D6D6"/>
</linearGradient>
<linearGradient id="paint3_linear_25_24045" x1="497.334" y1="50.4027" x2="288.652" y2="429.597" gradientUnits="userSpaceOnUse">
<stop stop-color="#A54CF9"/>
<stop offset="1" stop-color="#622B93"/>
</linearGradient>
<linearGradient id="paint4_linear_25_24045" x1="40.7914" y1="0" x2="40.7914" y2="58.2734" gradientUnits="userSpaceOnUse">
<stop stop-color="#F4F4F4"/>
<stop offset="1" stop-color="#D6D6D6"/>
</linearGradient>
</defs>
</svg>
