<svg width="458" height="722" viewBox="0 0 458 722" fill="none" xmlns="http://www.w3.org/2000/svg">
<g filter="url(#filter0_bi_2_24157)">
<rect x="458" width="722" height="458" rx="25" transform="rotate(90 458 0)" fill="url(#paint0_linear_2_24157)"/>
</g>
<path d="M53.8871 489L61.0024 473.188H63.8936L71.0315 489H67.9595L61.8381 474.747H63.0127L56.9139 489H53.8871ZM57.1624 485.341L57.9529 483.037H66.4913L67.2819 485.341H57.1624ZM75.3012 489V473.188H77.7182L87.6344 485.363H86.4372V473.188H89.3511V489H86.9342L77.0179 476.825H78.2151V489H75.3012ZM99.0543 489V475.673H93.8139V473.188H107.231V475.673H101.991V489H99.0543ZM122.807 473.188H125.744V489H122.807V473.188ZM114.63 489H111.694V473.188H114.63V489ZM123.033 482.224H114.382V479.716H123.033V482.224ZM139.648 489.226C138.414 489.226 137.277 489.023 136.238 488.616C135.199 488.209 134.295 487.645 133.527 486.922C132.759 486.184 132.164 485.326 131.743 484.347C131.321 483.353 131.11 482.269 131.11 481.094C131.11 479.92 131.321 478.843 131.743 477.864C132.164 476.87 132.759 476.012 133.527 475.289C134.295 474.551 135.199 473.979 136.238 473.572C137.277 473.166 138.406 472.962 139.626 472.962C140.861 472.962 141.99 473.166 143.014 473.572C144.053 473.979 144.957 474.551 145.725 475.289C146.493 476.012 147.087 476.87 147.509 477.864C147.931 478.843 148.142 479.92 148.142 481.094C148.142 482.269 147.931 483.353 147.509 484.347C147.087 485.341 146.493 486.199 145.725 486.922C144.957 487.645 144.053 488.209 143.014 488.616C141.99 489.023 140.868 489.226 139.648 489.226ZM139.626 486.651C140.424 486.651 141.162 486.515 141.839 486.244C142.517 485.973 143.104 485.589 143.601 485.092C144.098 484.58 144.482 483.993 144.753 483.33C145.039 482.653 145.183 481.907 145.183 481.094C145.183 480.281 145.039 479.543 144.753 478.88C144.482 478.203 144.098 477.616 143.601 477.119C143.104 476.607 142.517 476.215 141.839 475.944C141.162 475.673 140.424 475.537 139.626 475.537C138.828 475.537 138.09 475.673 137.412 475.944C136.75 476.215 136.162 476.607 135.65 477.119C135.153 477.616 134.762 478.203 134.476 478.88C134.205 479.543 134.069 480.281 134.069 481.094C134.069 481.892 134.205 482.63 134.476 483.308C134.762 483.985 135.153 484.58 135.65 485.092C136.147 485.589 136.735 485.973 137.412 486.244C138.09 486.515 138.828 486.651 139.626 486.651ZM153.513 489V473.188H155.93L165.846 485.363H164.649V473.188H167.563V489H165.146L155.23 476.825H156.427V489H153.513ZM177.944 489V482.743L178.599 484.55L171.732 473.188H174.872L180.383 482.336H178.621L184.178 473.188H187.069L180.203 484.55L180.88 482.743V489H177.944ZM199.753 489V473.188H206.665C208.381 473.188 209.887 473.52 211.182 474.182C212.477 474.845 213.486 475.763 214.209 476.938C214.932 478.112 215.293 479.498 215.293 481.094C215.293 482.675 214.932 484.061 214.209 485.25C213.486 486.425 212.477 487.344 211.182 488.006C209.887 488.669 208.381 489 206.665 489H199.753ZM202.689 486.515H206.529C207.719 486.515 208.743 486.289 209.601 485.838C210.475 485.386 211.145 484.753 211.612 483.94C212.093 483.127 212.334 482.178 212.334 481.094C212.334 479.995 212.093 479.046 211.612 478.248C211.145 477.435 210.475 476.802 209.601 476.351C208.743 475.899 207.719 475.673 206.529 475.673H202.689V486.515ZM234.076 489.226C232.842 489.226 231.659 489.053 230.53 488.706C229.401 488.345 228.505 487.886 227.842 487.328L228.859 485.047C229.491 485.544 230.274 485.958 231.208 486.289C232.141 486.621 233.098 486.786 234.076 486.786C234.905 486.786 235.575 486.696 236.087 486.515C236.599 486.335 236.975 486.094 237.216 485.792C237.457 485.476 237.578 485.122 237.578 484.731C237.578 484.249 237.404 483.865 237.058 483.579C236.712 483.278 236.26 483.044 235.703 482.879C235.161 482.698 234.551 482.532 233.873 482.382C233.211 482.231 232.54 482.058 231.863 481.862C231.2 481.651 230.59 481.388 230.033 481.072C229.491 480.74 229.047 480.304 228.7 479.761C228.354 479.219 228.181 478.527 228.181 477.683C228.181 476.825 228.407 476.042 228.859 475.334C229.325 474.611 230.026 474.039 230.959 473.617C231.908 473.181 233.105 472.962 234.551 472.962C235.499 472.962 236.441 473.083 237.374 473.324C238.308 473.565 239.121 473.911 239.814 474.363L238.888 476.644C238.18 476.223 237.45 475.914 236.697 475.718C235.944 475.507 235.221 475.402 234.528 475.402C233.715 475.402 233.052 475.5 232.54 475.696C232.043 475.891 231.675 476.147 231.434 476.464C231.208 476.78 231.095 477.141 231.095 477.548C231.095 478.03 231.26 478.421 231.592 478.722C231.938 479.008 232.382 479.234 232.924 479.4C233.482 479.566 234.099 479.731 234.777 479.897C235.454 480.048 236.124 480.221 236.787 480.416C237.465 480.612 238.075 480.868 238.617 481.184C239.174 481.501 239.618 481.93 239.949 482.472C240.296 483.014 240.469 483.699 240.469 484.528C240.469 485.371 240.235 486.154 239.769 486.877C239.317 487.584 238.617 488.157 237.668 488.593C236.719 489.015 235.522 489.226 234.076 489.226ZM251.905 489L259.02 473.188H261.911L269.049 489H265.977L259.856 474.747H261.03L254.932 489H251.905ZM255.18 485.341L255.971 483.037H264.509L265.3 485.341H255.18ZM273.319 489V473.188H279.824C281.225 473.188 282.422 473.414 283.416 473.866C284.425 474.318 285.2 474.965 285.742 475.808C286.285 476.652 286.556 477.653 286.556 478.813C286.556 479.972 286.285 480.974 285.742 481.817C285.2 482.645 284.425 483.285 283.416 483.737C282.422 484.174 281.225 484.392 279.824 484.392H274.945L276.255 483.059V489H273.319ZM283.664 489L279.666 483.263H282.806L286.827 489H283.664ZM276.255 483.376L274.945 481.975H279.689C280.984 481.975 281.955 481.696 282.603 481.139C283.265 480.582 283.597 479.807 283.597 478.813C283.597 477.804 283.265 477.028 282.603 476.486C281.955 475.944 280.984 475.673 279.689 475.673H274.945L276.255 474.227V483.376ZM289.864 489L296.979 473.188H299.87L307.008 489H303.936L297.815 474.747H298.989L292.89 489H289.864ZM293.139 485.341L293.929 483.037H302.468L303.258 485.341H293.139ZM317.746 489.226C315.577 489.226 313.876 488.616 312.641 487.396C311.421 486.176 310.811 484.415 310.811 482.111V473.188H313.748V481.998C313.748 483.624 314.094 484.806 314.787 485.544C315.495 486.282 316.488 486.651 317.768 486.651C319.048 486.651 320.035 486.282 320.728 485.544C321.42 484.806 321.767 483.624 321.767 481.998V473.188H324.658V482.111C324.658 484.415 324.04 486.176 322.806 487.396C321.586 488.616 319.899 489.226 317.746 489.226ZM333.491 489.226C332.482 489.226 331.549 489.03 330.69 488.639C329.847 488.247 329.154 487.682 328.612 486.944L330.284 484.934C330.72 485.536 331.195 485.988 331.707 486.289C332.234 486.591 332.806 486.741 333.424 486.741C335.065 486.741 335.886 485.77 335.886 483.827V475.65H330.261V473.188H338.822V483.669C338.822 485.536 338.363 486.929 337.444 487.848C336.541 488.767 335.223 489.226 333.491 489.226ZM352.609 489.226C351.374 489.226 350.237 489.023 349.198 488.616C348.159 488.209 347.255 487.645 346.487 486.922C345.719 486.184 345.124 485.326 344.703 484.347C344.281 483.353 344.07 482.269 344.07 481.094C344.07 479.92 344.281 478.843 344.703 477.864C345.124 476.87 345.719 476.012 346.487 475.289C347.255 474.551 348.159 473.979 349.198 473.572C350.237 473.166 351.366 472.962 352.586 472.962C353.821 472.962 354.95 473.166 355.974 473.572C357.013 473.979 357.917 474.551 358.685 475.289C359.453 476.012 360.048 476.87 360.469 477.864C360.891 478.843 361.102 479.92 361.102 481.094C361.102 482.269 360.891 483.353 360.469 484.347C360.048 485.341 359.453 486.199 358.685 486.922C357.917 487.645 357.013 488.209 355.974 488.616C354.95 489.023 353.828 489.226 352.609 489.226ZM352.586 486.651C353.384 486.651 354.122 486.515 354.8 486.244C355.477 485.973 356.065 485.589 356.562 485.092C357.059 484.58 357.443 483.993 357.714 483.33C358 482.653 358.143 481.907 358.143 481.094C358.143 480.281 358 479.543 357.714 478.88C357.443 478.203 357.059 477.616 356.562 477.119C356.065 476.607 355.477 476.215 354.8 475.944C354.122 475.673 353.384 475.537 352.586 475.537C351.788 475.537 351.05 475.673 350.372 475.944C349.71 476.215 349.123 476.607 348.611 477.119C348.114 477.616 347.722 478.203 347.436 478.88C347.165 479.543 347.029 480.281 347.029 481.094C347.029 481.892 347.165 482.63 347.436 483.308C347.722 483.985 348.114 484.58 348.611 485.092C349.108 485.589 349.695 485.973 350.372 486.244C351.05 486.515 351.788 486.651 352.586 486.651Z" fill="#FEFBFF"/>
<rect x="311.928" y="82.0723" width="97.9347" height="69.3406" rx="6.07624" transform="rotate(90 311.928 82.0723)" fill="url(#paint1_linear_2_24157)" stroke="#211F21" stroke-width="2.14455"/>
<path d="M289.41 82.4297L289.41 111.739" stroke="#211F21" stroke-width="2" stroke-linecap="round"/>
<path d="M267.25 82.4297L267.25 111.096" stroke="#211F21" stroke-width="2" stroke-linecap="round"/>
<path d="M267.25 151.055L267.25 179.649" stroke="#211F21" stroke-width="2" stroke-linecap="round"/>
<path d="M288.695 150.626L288.695 179.649" stroke="#211F21" stroke-width="2" stroke-linecap="round"/>
<circle cx="301.562" cy="131.04" r="2.14455" transform="rotate(90 301.562 131.04)" fill="#211F21"/>
<path d="M297.273 146.766C306.614 144.024 311.213 138.903 311.213 130.682C311.213 120.674 303.592 117.846 289.767 111.739C280.616 115.649 275.686 115.69 267.25 111.739C248.868 118.145 243.207 122.891 243.302 131.04C243.302 141.762 252.39 144.814 267.25 150.698C275.625 147.604 280.247 147.273 288.623 150.151" stroke="#211F21" stroke-width="2" stroke-linecap="round"/>
<circle cx="95.5758" cy="118.01" r="39.8531" fill="#E6E3E7"/>
<circle cx="144.147" cy="118.01" r="39.8531" fill="#D7D7D7"/>
<circle cx="95.5758" cy="117.853" r="39.8531" fill="#E71924"/>
<circle cx="144.147" cy="117.853" r="39.8531" fill="#F99F19"/>
<circle cx="95.4552" cy="118.23" r="39.8531" fill="#E71924"/>
<circle cx="144.026" cy="118.23" r="39.8531" fill="#F99F19"/>
<circle cx="95.4552" cy="118.074" r="39.8531" fill="#E71924"/>
<circle cx="144.026" cy="118.074" r="39.8531" fill="#F99F19"/>
<path d="M72.5 626.5C72.5 619 74 620.5 78 616.5C64.5 616.5 56 624.5 56 633V674.5H72.5V626.5Z" fill="white"/>
<path d="M98 631C98 622 86 616.5 79 616C83 610.5 90.5 610 94 610C106.51 610 113 622.5 113 628.5V674.5H98V631Z" fill="white"/>
<path d="M159.5 658C159.5 665.5 158 664 154 668C167.5 668 176 660 176 651.5L176 610L159.5 610L159.5 658Z" fill="white"/>
<path d="M134 653.5C134 662.5 146 668 153 668.5C149 674 141.5 674.5 138 674.5C125.49 674.5 119 662 119 656L119 610L134 610L134 653.5Z" fill="white"/>
<defs>
<filter id="filter0_bi_2_24157" x="-70" y="-70" width="598" height="862" filterUnits="userSpaceOnUse" color-interpolation-filters="sRGB">
<feFlood flood-opacity="0" result="BackgroundImageFix"/>
<feGaussianBlur in="BackgroundImageFix" stdDeviation="35"/>
<feComposite in2="SourceAlpha" operator="in" result="effect1_backgroundBlur_2_24157"/>
<feBlend mode="normal" in="SourceGraphic" in2="effect1_backgroundBlur_2_24157" result="shape"/>
<feColorMatrix in="SourceAlpha" type="matrix" values="0 0 0 0 0 0 0 0 0 0 0 0 0 0 0 0 0 0 127 0" result="hardAlpha"/>
<feOffset dx="3" dy="3"/>
<feGaussianBlur stdDeviation="3"/>
<feComposite in2="hardAlpha" operator="arithmetic" k2="-1" k3="1"/>
<feColorMatrix type="matrix" values="0 0 0 0 1 0 0 0 0 1 0 0 0 0 1 0 0 0 0.25 0"/>
<feBlend mode="normal" in2="shape" result="effect2_innerShadow_2_24157"/>
</filter>
<linearGradient id="paint0_linear_2_24157" x1="1068.09" y1="61.83" x2="812.096" y2="526.995" gradientUnits="userSpaceOnUse">
<stop stop-color="#A54CF9"/>
<stop offset="1" stop-color="#622B93"/>
</linearGradient>
<linearGradient id="paint1_linear_2_24157" x1="363.04" y1="81" x2="363.04" y2="152.485" gradientUnits="userSpaceOnUse">
<stop stop-color="#F4F4F4"/>
<stop offset="1" stop-color="#D6D6D6"/>
</linearGradient>
</defs>
</svg>
